<?xml version="1.0" encoding="utf-8"?>
<!-- Generator: Adobe Illustrator 23.0.1, SVG Export Plug-In . SVG Version: 6.00 Build 0)  -->
<svg version="1.1" id="Camada_1" xmlns="http://www.w3.org/2000/svg" xmlns:xlink="http://www.w3.org/1999/xlink" x="0px" y="0px"
	 viewBox="0 0 396 344" style="enable-background:new 0 0 396 344;" xml:space="preserve" fill='currentColor'>
<path d="M9.5,342.1c-0.1-4.4-0.9-13.9-2-27.1c-2.7-32.7-7.2-87.4-7.1-137.8c0.2-62.5,7.3-99.9,21.8-114.1c5.1-5,11-7.2,17.7-6.5
	l-0.7,7c-4.6-0.4-8.5,1-12.1,4.6C14.3,80.8,7.7,117.5,7.5,177.2c-0.1,50,4.4,104.6,7.1,137.2c1.1,13.3,1.9,22.9,2,27.5L9.5,342.1z
	 M231,263l-65.4-31.6v-2.2c0-8.4-1.2-18.9-3.1-22.2c-1.8-2.4-17-4-22.9-2.8l-0.3,0c-12.3,1.3-22.1-3.1-26.3-11.8
	c-3.1-6.5-2-14,2.6-18.6c2.6-2.6,10.3-8,24.8-1.2l-3,6.3c-7.4-3.5-13.5-3.6-16.9-0.2c-2.6,2.6-3.1,6.9-1.2,10.7
	c2.8,5.8,9.9,8.8,19.1,7.8c3.9-0.6,25.6-1.3,30.1,6.2c3.3,5.5,3.9,18.2,4,23.5l42.1,20.3L201,221.8l-0.1-0.6
	c-0.9-6.8,0.8-25.9,3.6-30.3c1.6-2.4,5.5-4.6,12.3-8.2c4.2-2.2,12-6.4,13-8.2c8.1-19.2,4.9-52.9-3.1-71.1
	c-4.7-10.9-12.1-13.7-18.6-16.1c-4.6-1.7-9-3.4-11-7.8l6.4-2.9c0.8,1.7,3.2,2.7,7.1,4.1c7,2.6,16.7,6.3,22.6,19.9
	c8.7,19.9,12,55.5,3.1,76.6c-1.6,3.8-7.2,7-16.1,11.7c-3.5,1.9-8.8,4.7-9.7,5.8c-1.3,2.2-3.3,18-2.6,25L231,263z M140.1,192.5
	l-6.6-2.4l0.3-0.8h-10.2v-7h20.3L140.1,192.5z M103.5,187.7l-6.4-2.2c4-44.1,1.5-69.2-8-81.4l5.5-4.3c9.7,12.4,12.9,34.5,10.5,72.5
	c17.8-28.2,32.6-57.5,12.9-90.5l-3-5l5.8-0.3c21.3-1.1,38.1,13.6,44.6,20.2c4.1-6.1,5.2-17.3,3.9-26.1c-1.1-6.8-3.4-10.6-5.1-11.3
	l2.7-6.5c6.3,2.6,8.6,11.6,9.4,16.7c1.9,12.3-0.4,28.3-8.5,35.1l-2.7,2.3l-2.3-2.7c-6.1-7.3-19.9-18.8-35.8-20.5
	c19.2,38.2-1.9,70.7-22.3,102.2L103.5,187.7z M198.6,179.8c-2.3,0-3.3-0.9-3.8-1.4c-0.6-0.6-2.4-2.3-4.1-10.8l3.4-0.7l-3.4,0.7
	c-3.5-17,4.1-28.1,12.4-32.9c7.5-4.3,16.2-4,21.6,0.8c3.7,3.3,8.8,11.4,1.4,28.3c-0.9,2.1-4.3,5-10,8.6l-1.9-3l1.9,3
	C206.7,178.2,201.5,179.8,198.6,179.8z M197.8,167.3c0.7,3,1.2,4.6,1.6,5.4c1.8-0.4,5.9-2,11.3-5.3c-0.1-2.2-0.8-4.8-3.4-5.5
	C204.4,161.2,200.2,163.1,197.8,167.3z M205.9,154.8c1,0,2.1,0.1,3.1,0.4c3.3,0.8,6.6,3.4,8,8c1.5-1.2,2.4-2,2.7-2.4
	c4.1-9.3,4.2-16.6,0.3-20.1c-3.1-2.8-8.6-2.8-13.4,0c-2.4,1.4-9.3,6.3-9.7,17.3C199.6,156,202.8,154.8,205.9,154.8z M219.6,160.9
	C219.6,160.9,219.6,160.9,219.6,160.9C219.6,160.9,219.6,160.9,219.6,160.9z M203.2,121.4l-5.8-3.9l0.4-0.5h-0.5v-7H211L203.2,121.4
	z M226.5,80.7c-11.4-53.4-48.2-66.3-69.1-69.3C117.3,5.8,71.2,26.5,54.5,57.7l-6.2-3.3C57.1,38,73.3,23.9,93.9,14.5
	c20.7-9.4,43.6-12.9,64.5-10c22.7,3.2,62.7,17.2,75,74.8L226.5,80.7z"/>
<path d="M245.7,107.5c-5,0-8.5-1.6-10.5-4.7c-4.4-6.7,0.5-17.6,4.7-27.2c1-2.2,1.9-4.2,2.5-5.9l2.8-7.5l3.6,7.2
	c0.4,0.7,0.8,1.5,1.2,2.3c4.6,9.1,11.6,22.8,6.8,30.6C254.8,105.8,251,107.5,245.7,107.5z M246,79.3c-2.8,6.4-7.1,16.3-4.9,19.7
	c0.8,1.2,3,1.5,4.6,1.5c2.7,0,4.5-0.6,5.2-1.8C253.1,95.1,249.2,86,246,79.3z"/>
<path d="M282,343.7l-6.2-3.3c12-22.1,15.7-39,11.3-51.6c-3.2-9.3-10.8-16.3-23-21.5c-13.9-5.9-44.4-31.1-58.5-43.6l-5.1-4.5
	l99.4-22.5L313,83.1l7,0.8l-13.6,118.5l-90.8,20.5c10.4,9,24,20,35.2,28l-0.3-1.3c48.5-10,89.6-21,94.3-25.3
	c3.2-10.7-3.7-132.4-6.5-148.7l6.9-1.2c1.3,7.7,3.9,43.7,5.6,78.5c3.4,68.4,1,73.1,0.2,74.6c-1.1,2.1-2.9,5.6-40.2,15.3
	c-20.5,5.3-42.3,10.1-53.4,12.4c3.8,2.5,7.1,4.4,9.7,5.5c14,5.9,23,14.6,26.9,25.7C298.9,301.2,295.2,319.4,282,343.7z M344.9,224.1
	L344.9,224.1L344.9,224.1z"/>
<path d="M135.7,342.1l-7-0.1c0.1-5.6,0-12.3-0.1-19.3c-0.4-30.5-0.9-68.5,13.4-83c4-4,8.9-6.1,14.6-6.1c6.7,0,12.4,2.5,17.2,7.4
	c18,18.8,16.1,68.8,15.2,92.8c-0.1,3.6-0.3,6.5-0.3,8.3h-7c0-2,0.1-4.9,0.3-8.6c0.8-21.3,2.8-71-13.2-87.7
	c-3.4-3.5-7.4-5.3-12.1-5.3c-3.8,0-7,1.3-9.6,4c-12.3,12.4-11.7,50.3-11.4,78C135.7,329.6,135.8,336.3,135.7,342.1z"/>
<path d="M346.8,12.2c-0.5-1-1.2-2-2-2.8c-6.9-7.5-23.5-6.9-37.4-2.8c-9.9,2.9-20,8.2-24,15.4c-1.2,2.2-1.9,4.6-1.8,7.2
	c0,0.3,0,0.6,0.1,0.9c0.7,4.7,3.8,22.9,11,31.7c2.3,2.8,5.1,4.7,8.3,4.8c0.1,0,0.2,0,0.3,0c0.4,0,0.7,0,1.1-0.1
	c12-1.4,15.9-3.9,17-9.5c4.9,3.1,11.5,2.8,20.9,1c5.2-1,9.1-3.9,11.4-8.5c0.5-1,0.9-2,1.2-3.2C355.5,37.8,353.2,25.4,346.8,12.2z
	 M345.5,46.4c-1.3,2.6-3.4,4.2-6.4,4.8c-14.4,2.8-16.8,0.8-19.7-4.9l-6.6,1.7c0,0.8,0,1.5,0.1,2.3c0.1,3.3,0.2,5.7-0.6,6.6
	c-0.8,0.8-2.8,1.5-5,1.9c-2.2,0.4-4.4,0.7-5.5,0.8c-0.8,0.1-1.6-0.3-2.5-1c-4-3.5-8.5-15.6-10.5-29.3c-0.3-2.4,1.2-5.1,4.1-7.6
	c3.6-3.2,9.5-6.2,16.6-8.3c6.2-1.8,12.2-2.7,17.4-2.7c4.7,0,8.6,0.7,11.1,2.2c1.2,0.7,2.1,1.5,2.6,2.5c0.5,1.1,1.1,2.2,1.5,3.3
	C347,30.1,348.4,40.5,345.5,46.4z"/>
<path d="M391.5,45.2c0-2.7-0.1-9.4-1.2-14c-1.1-4.7-4-10.7-5.3-13.1c0.5-3.7,1-12.6-4.6-16.2c-7.6-5-30.8,5.1-33.9,6.7
	c-0.6,0.3-1.2,0.6-1.8,1c-2.4,1.2-4.7,2.4-6.9,3.4c1.2,0.7,2.1,1.5,2.6,2.5c0.5,1.1,1.1,2.2,1.5,3.3c1.3-0.6,2.5-1.2,3.9-1.9
	l7.1,29.7l4.1,17.1c-1,0-2.2,0-3.4,0.1c-7.5,0.1-16.9,0.3-24.5,2c-9.1,2.1-18,6.3-26,10l-2.1-9l-1.9-8c-4-3.5-8.5-15.6-10.5-29.3
	c-0.3-2.4,1.2-5.1,4.1-7.6c-1.8,0-3.6,0.1-5.3,0.2c-1.4,0.1-2.7,0.2-4,0.2c-25.2,1.8-28.1,6.7-29.1,8.4c-2.1,3.6-1.3,7.3-0.6,10
	c0.2,0.9,0.6,2.7,0.4,3.1c0,0-0.3,0.5-2,0.9c-2-0.1-7.2,0.1-10.2,2.8c-1.2,1.1-2.8,2.6,0.4,16.6c3.6,15.8,6.1,16.6,7.6,17
	c3.9,1.1,8.7-1,10.4-1.9c1.2-0.3,2-0.3,2.6-0.3c0.6,0,0.9,0.1,0.9,0.1c0.3,0.4,0.4,1.8,0.5,2.7c0.3,2.7,0.7,6.7,4.3,9.1
	c1.5,1,3.5,1.4,5.9,1.4c10.6,0,27.6-7.9,27.8-8c1.1-0.5,2.3-1.1,3.5-1.7c8.1-3.8,16.5-7.8,25-9.7c6.9-1.5,15.8-1.7,23-1.8
	c3.1,0,5.7-0.1,7.9-0.2c17.5-1.2,29.8-3.1,33.1-8.6C398.1,56.1,393.5,48.2,391.5,45.2z M272.4,84.5c-0.8-0.5-1-1.7-1.2-4
	c-0.3-2.5-0.6-5.7-3.3-7.6c-1.5-1.1-3.3-1.5-5.1-1.5c-1.6,0-3.2,0.3-4.5,0.6l-0.5,0.1l-0.4,0.2c-1.4,0.8-3.4,1.5-4.7,1.6
	c-1.9-3.9-5.2-17.7-5.3-22.1c1.1-0.4,3.2-0.6,4.9-0.6l0.5,0l0.5-0.1c3.3-0.8,5.5-2.1,6.8-4.1c1.8-2.8,1-5.9,0.5-8.4
	c-0.5-2.3-0.8-3.8-0.2-4.8c0.9-1.3,7.5-3.6,21.3-4.8c1-0.1,2.1-0.2,3.2-0.3l7.8,32.9l4,16.8C287.3,82.5,274.8,86,272.4,84.5z
	 M388.7,58.2c-0.7,1-4.4,3.4-24.6,5l-11.8-49.7c8.3-3.7,21.8-7.3,24.3-5.9c1.6,1.1,2,6.3,1.3,10.4l-0.2,1.2l0.6,1.1
	c0,0.1,4,7.5,5.2,12.5c1.2,4.9,1,13.3,1,13.4l0,1.2l0.7,1C387.3,51.3,389.7,56.4,388.7,58.2z"/>
</svg>
